#!OML:ASF X:\2005_08_12_Meinard\c3d\meinard.ASF
:FULLY-SPECIFIED
:DEGREES
1657
root 6.91244 16.4982 0.753425 105.064 -85.804 -129.034
lowerback 36.5448 -1.05518 -1.31869
upperback 8.50185 -2.8621 1.28133
thorax -8.60116 -1.86441 3.23223
lowerneck -13.3204 -3.57078 -7.76677
upperneck 1.82762 -4.30199 11.1831
head 3.12991 -1.79372 4.40448
rclavicle 2.86001e-014 -1.86858e-014
rhumerus -29.3666 -16.1578 -82.4582
rradius 20.361
rwrist 41.2825
rhand -9.68462 -3.02285
rfingers 7.12502
rthumb 16.2873 -32.3588
lclavicle 2.86001e-014 -1.86858e-014
lhumerus -16.0949 25.0975 85.3576
lradius 27.5326
lwrist -236.999
lhand -11.6161 6.75073
lfingers 7.12502
lthumb 14.4269 36.2293
rfemur -179.178 -178.089 201.199
rtibia 41.787
rfoot 165.972 160.021
rtoes 1.57436
lfemur -166.332 185.833 -205.557
ltibia 39.7434
lfoot -27.3268 34.2276
ltoes 2.27814
1658
root 6.91415 16.4966 0.759751 104.975 -85.859 -128.949
lowerback 36.4451 -1.06864 -1.31132
upperback 8.53827 -2.87917 1.25199
thorax -8.52596 -1.87429 3.19883
lowerneck -13.2178 -3.56451 -7.7726
upperneck 1.76864 -4.29181 11.1569
head 3.09416 -1.7934 4.39894
rclavicle 1.54804e-014 -1.59028e-014
rhumerus -29.5082 -16.407 -82.2675
rradius 20.1729
rwrist 41.6371
rhand -9.57298 -2.9199
rfingers 7.12502
rthumb 16.3948 -32.247
lclavicle 1.54804e-014 -1.59028e-014
lhumerus -16.4386 26.519 84.8796
lradius 27.1127
lwrist -238.117
lhand -11.626 6.8582
lfingers 7.12502
lthumb 14.4173 36.3374
rfemur -179.144 -177.945 201.135
rtibia 42.0405
rfoot 165.816 159.734
rtoes 1.37485
lfemur -166.254 186.34 -205.975
ltibia 39.7544
lfoot -27.5544 34.703
ltoes 1.98003
1659
root 6.91612 16.496 0.764565 104.439 -85.9278 -128.401
lowerback 36.3449 -1.09313 -1.31129
upperback 8.57069 -2.91108 1.23122
thorax -8.45358 -1.89078 3.1841
lowerneck -13.1188 -3.56271 -7.82021
upperneck 1.69711 -4.28192 11.1585
head 3.05696 -1.79267 4.40899
rclavicle -2.03009e-014 -3.97569e-016
rhumerus -29.633 -16.6176 -82.0814
rradius 19.9611
rwrist 42.003
rhand -9.48401 -2.84709
rfingers 7.12502
rthumb 16.4805 -32.1671
lclavicle -2.03009e-014 -3.97569e-016
lhumerus -16.8086 28.0547 84.361
lradius 26.6915
lwrist -239.266
lhand -11.6014 6.98716
lfingers 7.12502
lthumb 14.4411 36.4647
rfemur -179.116 -177.812 201.085
rtibia 42.2864
rfoot 165.635 159.501
rtoes 1.33729
lfemur -166.192 186.904 -206.399
ltibia 39.7704
lfoot -27.7953 35.1843
ltoes 1.64451
1660
root 6.91683 16.4952 0.76702 104.009 -85.9874 -127.955
lowerback 36.2454 -1.09809 -1.34561
upperback 8.59496 -2.92795 1.23018
thorax -8.38918 -1.89971 3.20299
lowerneck -13.0404 -3.55834 -7.84006
upperneck 1.6527 -4.27139 11.1282
head 3.02956 -1.7914 4.4043
rclavicle -8.82107e-015 0
rhumerus -29.7584 -16.7992 -81.8912
rradius 19.7461
rwrist 42.2977
rhand -9.38861 -2.79281
rfingers 7.12502
rthumb 16.5723 -32.1052
lclavicle -8.82107e-015 0
lhumerus -17.2382 29.2597 83.8397
lradius 26.3419
lwrist -240.065
lhand -11.5597 7.03182
lfingers 7.12502
lthumb 14.4813 36.5065
rfemur -179.089 -177.726 201.063
rtibia 42.524
rfoot 165.434 159.307
rtoes 1.28378
lfemur -166.132 187.435 -206.794
ltibia 39.7907
lfoot -28.0391 35.6409
ltoes 1.35751
1661
root 6.91687 16.4937 0.766713 103.473 -86.0399 -127.391
lowerback 36.1387 -1.09612 -1.3717
upperback 8.61913 -2.93291 1.22402
thorax -8.32335 -1.9028 3.20732
lowerneck -12.9932 -3.56483 -7.85494
upperneck 1.6216 -4.27704 11.1162
head 3.01317 -1.79646 4.40305
rclavicle 1.22004e-014 1.0138e-014
rhumerus -29.88 -17.0169 -81.7064
rradius 19.515
rwrist 42.6306
rhand -9.27715 -2.75017
rfingers 7.12502
rthumb 16.6796 -32.0535
lclavicle 1.22004e-014 1.0138e-014
lhumerus -17.6923 30.4076 83.2899
lradius 26.0247
lwrist -240.879
lhand -11.5179 7.0486
lfingers 7.12502
lthumb 14.5215 36.5204
rfemur -179.068 -177.666 201.067
rtibia 42.7447
rfoot 165.27 159.177
rtoes 1.39714
lfemur -166.078 187.988 -207.178
ltibia 39.8235
lfoot -28.3062 36.1034
ltoes 1.07937
1662
root 6.91659 16.4926 0.76503 102.866 -86.0927 -126.746
lowerback 36.0355 -1.09292 -1.42319
upperback 8.63719 -2.94352 1.23157
thorax -8.26364 -1.90824 3.24204
lowerneck -12.9766 -3.56336 -7.87394
upperneck 1.60256 -4.26991 11.0959
head 3.00387 -1.79447 4.40055
rclavicle -2.60408e-014 1.74931e-014
rhumerus -30.0198 -17.2252 -81.5037
rradius 19.306
rwrist 42.9926
rhand -9.14319 -2.74454
rfingers 7.12502
rthumb 16.8086 -32.037
lclavicle -2.60408e-014 1.74931e-014
lhumerus -18.1643 31.6041 82.7104
lradius 25.6933
lwrist -241.687
lhand -11.3981 7.07141
lfingers 7.12502
lthumb 14.6369 36.5348
rfemur -179.049 -177.644 201.087
rtibia 42.9444
rfoot 165.07 159.056
rtoes 1.545
lfemur -166.035 188.603 -207.591
ltibia 39.8692
lfoot -28.5896 36.6174
ltoes 0.844516
1663
root 6.91548 16.4912 0.761941 102.241 -86.1389 -126.062
lowerback 35.9129 -1.08629 -1.47089
upperback 8.65041 -2.94667 1.23904
thorax -8.20279 -1.90955 3.27138
lowerneck -12.9667 -3.56459 -7.86506
upperneck 1.59348 -4.27018 11.061
head 2.9983 -1.79612 4.38828
rclavicle -1.79155e-014 1.94809e-014
rhumerus -30.1489 -17.4528 -81.2977
rradius 19.0511
rwrist 43.3421
rhand -9.03755 -2.71961
rfingers 7.12502
rthumb 16.9103 -32.0034
lclavicle -1.79155e-014 1.94809e-014
lhumerus -18.6837 32.7732 82.0943
lradius 25.3897
lwrist -242.503
lhand -11.2628 7.08398
lfingers 7.12502
lthumb 14.7673 36.5379
rfemur -179.055 -177.628 201.121
rtibia 43.1168
rfoot 164.891 158.921
rtoes 1.67866
lfemur -166.02 189.163 -207.956
ltibia 39.935
lfoot -28.8734 37.0832
ltoes 0.550012
